<svg xmlns="http://www.w3.org/2000/svg" style="border: 0 !important; clip: rect(0 0 0 0) !important; height: 1px !important; margin: -1px !important; overflow: hidden !important; padding: 0 !important; position: absolute !important; width: 1px !important;" class="root-svg-symbols-element">
    <symbol id="arrows" viewBox="0 0 13 13">
      <path d="M11 0h2v6h-2z" fill="#e62425"/><path d="M13 0v2H7V0zM2 13H0V7h2z" fill="#e62425"/><path d="M0 13v-2h6v2z" fill="#e62425"/><path d="M1 10.53L10.53 1 12 2.47 2.47 12z" fill="#e62425"/>
    </symbol>
    <symbol id="baloon-white" viewBox="0 0 26 32">
      <path fill="#fff" d="M13 .242h-.197C5.909.242.197 5.757 0 12.651c0 6.894 13 19.106 13 19.106s13-12.015 13-18.909C25.803 5.757 20.091.242 13.197.242H13zm0 18.713s-.197 0 0 0c-3.546 0-6.5-2.758-6.5-6.303s2.955-6.303 6.303-6.303h.394c3.546 0 6.303 2.758 6.303 6.303-.197 3.545-2.955 6.303-6.5 6.303z"/>
    </symbol>
    <symbol id="baloon" viewBox="0 0 26 32">
      <path fill="#ee3434" d="M13 .242h-.197C5.909.242.197 5.757 0 12.651c0 6.894 13 19.106 13 19.106s13-12.015 13-18.909C25.803 5.757 20.091.242 13.197.242H13zm0 18.713s-.197 0 0 0c-3.546 0-6.5-2.758-6.5-6.303s2.955-6.303 6.303-6.303h.394c3.546 0 6.303 2.758 6.303 6.303-.197 3.545-2.955 6.303-6.5 6.303z"/>
    </symbol>
    <symbol id="category" viewBox="0 0 57 48">
      <path d="M27 0v48l30-5V5L27 0z" fill="#fff"/><path d="M19 1v46l8 1V0l-8 1z" opacity=".5" fill="#fff"/><path d="M0 1v46l7 1V0L0 1z" opacity=".25" fill="#fff"/><path d="M17 1.67L7 0v48l10-1.67V1.67z" opacity=".6" fill="#fff"/>
    </symbol>
    <symbol id="check-mark" viewBox="0 0 15 15">
      <path d="M7.5 0a7.5 7.5 0 1 0 0 15 7.5 7.5 0 0 0 0-15zm4.846 5.976l-5.379 5.379a.281.281 0 0 1-.398 0l-.795-.803-.398-.401-1.85-1.946a.293.293 0 0 1-.083-.204c0-.071.029-.142.083-.196l.811-.731a.28.28 0 0 1 .2-.084.28.28 0 0 1 .197.084l1.835 1.872c.11.112.289.112.398 0l4.188-4.176c.11-.11.288-.11.396 0l.796.804a.287.287 0 0 1-.001.402z"/>
    </symbol>
    <symbol id="contact-email" viewBox="0 0 16 17">
      <title>Shape 7</title><path d="M0 17V7.444L8 11l8-3.556V17zm8-8.001l8-3.555V.999H0v4.445z" fill="#999"/>
    </symbol>
    <symbol id="cube" viewBox="0 0 14 15">
      <path d="M0 4.999l6 2v8l-6-2zm0-2.5l7-2.5 7 2.5-7 2.5zm14 2.5l-6 2v8l6-2z" fill="#ee3434"/>
    </symbol>
    <symbol id="docs" viewBox="0 0 14 15">
      <title>docs</title><path d="M0 12.857V0h11.85v12.857zM10 5V3H2v2zm0 4V7H2v2zm3 5V1h1v14H1v-1z" fill="#e33"/>
    </symbol>
    <symbol id="download-grey" viewBox="0 0 50 54">
      <title>download</title><path d="M0 31.417l14 9.938V26.797l-5.45-3.865z" fill="#b2b2b2"/><path d="M19 53.292V.999h12v29.148l10.08-7.215 8.49 8.485z" fill="#fff"/>
    </symbol>
    <symbol id="download" viewBox="0 0 50 54">
      <title>download</title><path d="M19 53.292V.999h12v29.148l10.08-7.215 8.49 8.485zM0 31.417l14 9.938V26.797l-5.45-3.865z" fill="#currentColor"/>
    </symbol>
    <symbol id="forapp" viewBox="0 0 20 16">
      <path fill="#fff" d="M20.339 15.996h-2.188c0-1.329-.317-2.947-2.963-2.947v-2.188s.412-.016.813-.016l.061.001a1.96 1.96 0 1 0-1.93-1.616l-.029-.012v2.711a4.067 4.067 0 0 1-8.134 0V8.947a1.898 1.898 0 0 0-3.796 0v1.898h2.711v2.169H2.173v2.982H.004V8.947a4.066 4.066 0 0 1 7.047-2.76 4.06 4.06 0 0 1 5.965 0 4.078 4.078 0 0 1 3.035-1.354 4.067 4.067 0 0 1 2.616 7.181 5.42 5.42 0 0 1 1.672 3.916V16zm-8.405-7.049a1.898 1.898 0 0 0-3.796 0v2.982a1.898 1.898 0 0 0 3.796 0zm4.067-5.693a1.627 1.627 0 1 1 0-3.254 1.627 1.627 0 0 1 0 3.254zm-5.965 0a1.627 1.627 0 1 1 0-3.254 1.627 1.627 0 0 1 0 3.254zm-5.965 0a1.627 1.627 0 1 1 0-3.254 1.627 1.627 0 0 1 0 3.254z"/>
    </symbol>
    <symbol id="gps" viewBox="0 0 1024 1024">
      <path fill="#fff" d="M512 256c-141.385 0-256 114.615-256 256s114.615 256 256 256 256-114.615 256-256-114.615-256-256-256zm0 358.4c-56.554 0-102.4-45.846-102.4-102.4S455.446 409.6 512 409.6c56.554 0 102.4 45.846 102.4 102.4S568.554 614.4 512 614.4zM512 0c28.277 0 51.2 22.923 51.2 51.2v51.2c0 28.277-22.923 51.2-51.2 51.2s-51.2-22.923-51.2-51.2V51.2C460.8 22.923 483.723 0 512 0zm0 870.4c28.277 0 51.2 22.923 51.2 51.2v51.2c0 28.277-22.923 51.2-51.2 51.2s-51.2-22.923-51.2-51.2v-51.2c0-28.277 22.923-51.2 51.2-51.2zM0 512c0-28.277 22.923-51.2 51.2-51.2h51.2c28.277 0 51.2 22.923 51.2 51.2s-22.923 51.2-51.2 51.2H51.2C22.923 563.2 0 540.277 0 512zm870.4 0c0-28.277 22.923-51.2 51.2-51.2h51.2c28.277 0 51.2 22.923 51.2 51.2s-22.923 51.2-51.2 51.2h-51.2c-28.277 0-51.2-22.923-51.2-51.2z"/>
    </symbol>
    <symbol id="inspection" viewBox="0 0 15 15">
      <path d="M12.258 3.808l1.074-1.074a7.523 7.523 0 0 1 1.666 4.012h-1.523a5.998 5.998 0 0 0-1.217-2.938zM8.253 1.524V.002a7.52 7.52 0 0 1 4.013 1.665l-1.074 1.078a6.012 6.012 0 0 0-2.939-1.221zM11 7.5a3.5 3.5 0 1 1-7 0 3.5 3.5 0 0 1 7 0zM2.734 1.667A7.53 7.53 0 0 1 6.746.002v1.522a6.016 6.016 0 0 0-2.938 1.217L2.734 1.667zm-1.21 5.079H.002a7.503 7.503 0 0 1 1.669-4.012l1.074 1.074a6.022 6.022 0 0 0-1.221 2.938zm1.217 4.446l-1.074 1.074A7.529 7.529 0 0 1 .002 8.253h1.522a6.07 6.07 0 0 0 1.217 2.939zm4.005 2.283v1.522a7.514 7.514 0 0 1-4.012-1.665l1.074-1.077a6.01 6.01 0 0 0 2.938 1.22zm5.52-.143a7.513 7.513 0 0 1-4.013 1.665v-1.522a6.035 6.035 0 0 0 2.939-1.217l1.074 1.074zm1.209-5.079h1.523a7.477 7.477 0 0 1-1.669 4.009l-1.074-1.074a5.96 5.96 0 0 0 1.22-2.935z"/>
    </symbol>
    <symbol id="linkedin" viewBox="0 0 455 455">
      <g fill="currentColor" fill-rule="evenodd" clip-rule="evenodd"><path d="M246.4 204.35v-.665c-.136.223-.324.446-.442.665h.442z"/><path d="M0 0v455h455V0H0zm141.522 378.002H74.016V174.906h67.506v203.096zm-33.753-230.816h-.446C84.678 147.186 70 131.585 70 112.085c0-19.928 15.107-35.087 38.211-35.087 23.109 0 37.31 15.159 37.752 35.087 0 19.5-14.643 35.101-38.194 35.101zM385 378.002h-67.524V269.345c0-27.291-9.756-45.92-34.195-45.92-18.664 0-29.755 12.543-34.641 24.693-1.776 4.34-2.24 10.373-2.24 16.459v113.426h-67.537s.905-184.043 0-203.096H246.4v28.779c8.973-13.807 24.986-33.547 60.856-33.547 44.437 0 77.744 29.02 77.744 91.398v116.465z"/></g>
    </symbol>
    <symbol id="magnifier" viewBox="0 0 15 15">
      <path d="M14.864 12.602l-3.309-3.355c.539-.941.82-1.987.82-3.042C12.375 2.785 9.597 0 6.187 0 2.778 0 0 2.785 0 6.205c0 3.421 2.778 6.205 6.187 6.205 1.089 0 2.165-.3 3.125-.874l3.293 3.342a.394.394 0 0 0 .569 0l1.69-1.71a.4.4 0 0 0 0-.566zM6.187 2.418a3.785 3.785 0 0 1 3.777 3.787 3.785 3.785 0 0 1-3.777 3.788 3.785 3.785 0 0 1-3.776-3.788 3.785 3.785 0 0 1 3.776-3.787z"/>
    </symbol>
    <symbol id="man-white" viewBox="0 0 13 16">
      <title>man</title><path d="M6.66 7.96c-1.71 0-3.11-1.63-3.11-3.63S4.95.7 6.66.7c1.72 0 3.11 1.63 3.11 3.63S8.38 7.96 6.66 7.96zM6.5 15.3C4 15.3.67 15.01.24 12.62H.2l.02-.52c.14-1.74.99-3.04 2.73-4.18.16-.1.33-.15.51-.15.76 0 1.28.87 1.95 1.98.33.56.94 1.59 1.23 1.67.25-.08.83-1.11 1.15-1.66.63-1.12 1.13-1.99 1.89-1.99.18 0 .36.01.51.11 1.66 1.08 2.47 2.34 2.59 4.14h.02v.6h-.05C12.33 15.01 9 15.3 6.5 15.3z" fill="#fff"/>
    </symbol>
    <symbol id="man" viewBox="0 0 13 16">
      <title>man</title><path d="M6.66 7.96c-1.71 0-3.11-1.63-3.11-3.63S4.95.7 6.66.7c1.72 0 3.11 1.63 3.11 3.63S8.38 7.96 6.66 7.96zM6.5 15.3C4 15.3.67 15.01.24 12.62H.2l.02-.52c.14-1.74.99-3.04 2.73-4.18.16-.1.33-.15.51-.15.76 0 1.28.87 1.95 1.98.33.56.94 1.59 1.23 1.67.25-.08.83-1.11 1.15-1.66.63-1.12 1.13-1.99 1.89-1.99.18 0 .36.01.51.11 1.66 1.08 2.47 2.34 2.59 4.14h.02v.6h-.05C12.33 15.01 9 15.3 6.5 15.3z" fill="#e33"/>
    </symbol>
    <symbol id="mark-white" viewBox="0 0 43 32">
      <path fill="#fff" d="M38.459.4a1.33 1.33 0 0 0-1.894 0L16.708 20.177a1.305 1.305 0 0 1-1.894 0L6.14 11.316a1.33 1.33 0 0 0-1.894 0L.403 14.759c-.247.242-.4.58-.4.953v.008c.004.375.156.713.4.961l8.78 9.208 1.895 1.895 3.763 3.817a1.33 1.33 0 0 0 1.894 0L42.25 6.113a1.359 1.359 0 0 0 0-1.895z"/>
    </symbol>
    <symbol id="mark" viewBox="0 0 43 32">
      <path fill="#e51e25" d="M38.459.4a1.33 1.33 0 0 0-1.894 0L16.708 20.177a1.305 1.305 0 0 1-1.894 0L6.14 11.316a1.33 1.33 0 0 0-1.894 0L.403 14.759c-.247.242-.4.58-.4.953v.008c.004.375.156.713.4.961l8.78 9.208 1.895 1.895 3.763 3.817a1.33 1.33 0 0 0 1.894 0L42.25 6.113a1.359 1.359 0 0 0 0-1.895z"/>
    </symbol>
    <symbol id="menu-close" viewBox="0 0 23.063 23.063">
      <path d="M13.647 11.505l8.934 8.934a1.514 1.514 0 1 1-2.141 2.142l-8.934-8.935-8.845 8.845A1.5 1.5 0 1 1 .54 20.37l8.844-8.845L.451 2.591a1.513 1.513 0 0 1 0-2.141 1.513 1.513 0 0 1 2.141 0l8.934 8.934L20.339.571a1.5 1.5 0 1 1 2.121 2.121l-8.813 8.813z" class="cls-1"/>
    </symbol>
    <symbol id="mobile-white" viewBox="0 0 12 16">
      <path fill="#fff" d="M10 15.999H2a2 2 0 0 1-2-2v-12a2 2 0 0 1 2-2h8a2 2 0 0 1 2 2v12a2 2 0 0 1-2 2zm-4-2a1 1 0 1 0 0-2 1 1 0 0 0 0 2zM10 3a1 1 0 0 0-1-1.001H3A1 1 0 0 0 2 3v6.999a1 1 0 0 0 1 1h6a1 1 0 0 0 1-1V3z"/>
    </symbol>
    <symbol id="mobile" viewBox="0 0 12 16">
      <path d="M10 15.999H2a2 2 0 0 1-2-2v-12a2 2 0 0 1 2-2h8a2 2 0 0 1 2 2v12a2 2 0 0 1-2 2zm-4-2a1 1 0 1 0 0-2 1 1 0 0 0 0 2zM10 3a1 1 0 0 0-1-1.001H3A1 1 0 0 0 2 3v6.999a1 1 0 0 0 1 1h6a1 1 0 0 0 1-1V3z"/>
    </symbol>
    <symbol id="pencil" viewBox="0 0 1025 1024">
      <path fill="#fff" d="M827.246 0L1024 196.754l-598.309 742.4L83.382 597.577zM0 1024h254.537C173.638 932.718 90.532 849.148 2.882 770.542-.001 784.091-.001 1024-.001 1024z"/>
    </symbol>
    <symbol id="place" viewBox="0 0 44 53">
      <path d="M22 0C9.85 0 0 9.85 0 22s10.63 16.09 22 31c11.37-14.91 22-18.85 22-31C44 9.85 34.15 0 22 0z" fill="#f79999"/><path d="M22 0v20.92h21.945C43.355 9.253 33.758.016 22.002 0z" fill="#f26666"/><path d="M37 21c0 8.284-6.716 15-15 15-8.284 0-15-6.716-15-15 0-8.284 6.716-15 15-15 8.284 0 15 6.716 15 15z" fill="#fff"/><path d="M28 21a6 6 0 1 1-12 0 6 6 0 0 1 12 0z" fill="#e33"/>
    </symbol>
    <symbol id="popup-close" viewBox="0 0 23.02 23.02">
      <title>popup-close</title><g data-name="Layer 2"><g data-name="Layer 1" fill="#fff" fill-rule="evenodd"><path d="M.53 20.36L20.33.56a1.5 1.5 0 0 1 2.12 2.12l-19.8 19.8a1.5 1.5 0 1 1-2.12-2.12z"/><path d="M22.57 20.43l-20-20A1.51 1.51 0 1 0 .44 2.59l20 20a1.51 1.51 0 1 0 2.14-2.14z"/></g></g>
    </symbol>
    <symbol id="price-monitoring" viewBox="0 0 52 49">
      <path d="M52 38.955C52 44.5 40.36 49 26.002 49c-14.36 0-26-4.5-26-10.045.001-.358.048-.703.136-1.033l-.136.028v-4.018h.52c2.41 4.58 12.9 8.036 25.48 8.036s23.07-3.455 25.48-8.036h.52v4.018h-.13c.082.302.129.647.13 1.004z" fill="#f48284"/><path d="M52 27.905C52 33.45 40.36 37.95 26.002 37.95c-14.36 0-26-4.5-26-10.045.001-.357.048-.703.136-1.032l-.136.028v-4.018h.52c2.41 4.58 12.9 8.036 25.48 8.036s23.07-3.456 25.48-8.036h.52V26.9h-.13c.082.3.129.647.13 1.004z" fill="#f48284"/><path d="M52 17.127c0 5.545-11.64 10.045-25.999 10.045-14.36 0-26-4.5-26-10.045.001-.358.048-.703.136-1.033l-.136.028v-4.018h.52c2.41 4.58 12.9 8.036 25.48 8.036s23.07-3.455 25.48-8.036h.52v4.018h-.13c.082.302.129.647.13 1.004z" fill="#f48284"/><path d="M52 33.932h-.52c-1.92 3.657-9 6.59-18.15 7.625v7.031C44.12 47.373 52 43.475 52 38.955a4.04 4.04 0 0 0-.135-1.033l.136.028zm0-11.049h-.52c-1.92 3.656-9 6.59-18.15 7.624v7.032C44.12 36.323 52 32.426 52 27.905a4.04 4.04 0 0 0-.135-1.032L52 26.9zm0-10.779h-.52c-1.92 3.657-9 6.59-18.15 7.625v7.031C44.12 25.535 52 21.687 52 17.127a4.04 4.04 0 0 0-.135-1.033l.136.028z" fill="#f7a7a8"/><path d="M52 10.045c0 5.548-11.64 10.045-25.999 10.045-14.36 0-26-4.497-26-10.045S11.641 0 26.001 0s26 4.497 26 10.045z" fill="#fff"/>
    </symbol>
    <symbol id="process-data" viewBox="0 0 32 32">
      <path fill="#fff" d="M30 14H18V2l4.2 4.2L28.6 0 32 3.4l-6.4 6.4L30 14zM3.4 32L0 28.6l6.4-6.4L2 18h12v12l-4.2-4.4L3.4 32zm3-22.2L0 3.4 3.4 0l6.4 6.4L14 2v12H2l4.4-4.2zm19.2 12.4l6.4 6.4-3.4 3.4-6.4-6.4L18 30V18h12l-4.4 4.2z"/>
    </symbol>
    <symbol id="process-desc" viewBox="0 0 32 32">
      <path fill="#fff" d="M32 14.871C32 6.777 25.412 0 17.318 0v14.871H32z"/><path fill="#fff" d="M15.059 17.129V2.258A15.028 15.028 0 0 0 0 16.94c-.188 8.282 6.4 14.871 14.682 15.059s14.871-6.4 15.059-14.682v-.188H15.059z"/>
    </symbol>
    <symbol id="process-flag" viewBox="0 0 32 32">
      <path fill="#fff" d="M32 1.143L0 8v22.857L32 24l-7.543-9.829L32 1.142zM7.543 25.371l-3.657.914V10.971l3.657-.686v15.086z"/>
    </symbol>
    <symbol id="process-gear" viewBox="0 0 32 32">
      <path fill="#fff" d="M28.8 13.6c-.6-.2-1-.6-1.2-1.2l-.8-2c-.2-.6-.2-1.2.2-1.6L28 7c.4-.4.4-1 0-1.6L26.6 4c-.4-.4-1-.4-1.6 0l-1.8 1.4c-.4.4-1.2.4-1.6.2l-2-.8c-.6-.4-1-.8-1.2-1.4l-.2-2.2C18 .6 17.6 0 17 0h-2c-.6 0-1 .6-1.2 1.2l-.2 2c-.2.6-.6 1.2-1.2 1.4l-2 .8c-.6.2-1.2.2-1.6-.2L7 4c-.4-.4-1-.4-1.6 0L4 5.4C3.6 6 3.6 6.6 4 7l1.4 1.8c.4.4.4 1.2.2 1.6l-.8 2c-.4.6-.8 1-1.4 1.2l-2.2.2C.6 14 0 14.4 0 15v2c0 .6.6 1 1.2 1.2l2.2.2c.6.2 1 .6 1.2 1.2l.8 2c.2.6.2 1.2-.2 1.6L4 25c-.4.4-.4.8-.2 1.4.2.2.8 1 .8 1l.6.4c.4.2 1.4.6 1.8.2l1.8-1.4c.4-.4 1.2-.4 1.6-.2l2 .8c.6.2 1 .8 1.2 1.2l.4 2.4c0 .6.4 1 1 1.2h2c.6 0 1-.6 1.2-1.2l.4-2.2c.2-.6.6-1 1.2-1.2l2-.8c.6-.2 1.2-.2 1.6.2l1.8 1.4c.4.4 1 .4 1.6 0l1.4-1.4c.4-.4.4-1 0-1.6l-1.4-1.8c-.4-.4-.4-1.2-.2-1.6l.8-2c.2-.6.8-1 1.2-1.2l2.2-.2c.6-.4 1.2-.8 1.2-1.4v-2c0-.6-.6-1-1.2-1.2l-2-.2zM16 20c-2.2 0-4-1.8-4-4s1.8-4 4-4 4 1.8 4 4-1.8 4-4 4z"/>
    </symbol>
    <symbol id="process-import" viewBox="0 0 30 32">
      <path fill="#fcfafc" d="M5.647 20.706l1.882 5.647h15.059l1.882-5.647 3.765-1.882 1.882 1.882L26.352 32H3.764L-.001 20.706l1.882-1.882 3.765 1.882z"/><path fill="#fcfafc" d="M13.176 0l-1.882 9.412H7.529l7.529 11.294 7.529-11.294h-3.765L16.94 0h-3.765z"/>
    </symbol>
    <symbol id="process-pancake" viewBox="0 0 32 32">
      <path fill="#fff" d="M16 32c-8.914 0-16-1.829-16-4.114v-4.114c0-.457.229-.686.686-.914 1.6 1.829 7.771 3.2 15.314 3.2s13.714-1.371 15.543-2.971c.229.229.457.686.686.914v4.114C32 30.172 24.915 32.001 16 32.001zm0-10.057c-8.914 0-16-1.829-16-4.114v-3.886c0-.457.229-.686.686-.914C2.286 14.629 8.457 16 16 16s13.714-1.371 15.543-2.971c.229.229.457.686.457.914v3.886c0 2.286-7.086 4.114-16 4.114zm0-9.829C7.086 12.114 0 10.285 0 8V4.114C0 1.828 7.086 0 16 0s16 1.829 16 4.114v4.114c0 2.057-7.086 3.886-16 3.886z"/>
    </symbol>
    <symbol id="process-spread" viewBox="0 0 32 32">
      <path fill="#fff" d="M2.133 4.267h8.533c1.28 0 2.133.853 2.133 2.133v4.267c0 1.28-.853 2.133-2.133 2.133H2.133C.853 12.8 0 11.947 0 10.667V6.4c0-1.28.853-2.133 2.133-2.133zm17.067 0h10.667C31.147 4.267 32 5.12 32 6.4s-.853 2.133-2.133 2.133H19.2c-1.28 0-2.133-.853-2.133-2.133s.853-2.133 2.133-2.133zm-1.067 6.4h12.8c.64 0 1.067.427 1.067 1.067s-.427 1.067-1.067 1.067h-12.8c-.64 0-1.067-.427-1.067-1.067s.427-1.067 1.067-1.067zm-16 8.533h8.533c1.28 0 2.133.853 2.133 2.133V25.6c0 1.28-.853 2.133-2.133 2.133H2.133C.853 27.733 0 26.88 0 25.6v-4.267c0-1.28.853-2.133 2.133-2.133zm17.067 0h10.667c1.28 0 2.133.853 2.133 2.133s-.853 2.133-2.133 2.133H19.2c-1.28 0-2.133-.853-2.133-2.133S17.92 19.2 19.2 19.2zm-1.067 6.4h12.8c.64 0 1.067.427 1.067 1.067s-.427 1.067-1.067 1.067h-12.8c-.64 0-1.067-.427-1.067-1.067s.427-1.067 1.067-1.067z"/>
    </symbol>
    <symbol id="process-title" viewBox="0 0 727 1024">
      <path fill="#ee3434" d="M726.724 196.923l-14.686-13.351L528.466 0l-61.191 61.191 94.568 94.568H0v311.517h89.005V244.764h493.309L474.841 352.237l62.971 62.971 188.913-188.913v-29.372zM0 827.299l14.686 13.128 183.572 183.572 61.191-61.191-94.568-94.568 561.843-.223v-89.005l-.223-222.734-89.005.223.223 222.512-493.309.223 107.251-107.473-62.971-62.971L0 797.705v29.594z"/>
    </symbol>
    <symbol id="process-unload" viewBox="0 0 24 32">
      <path d="M1.211 26.353H22.75c1.723 0 3.231 1.318 3.231 2.824 0 1.506-1.508 2.824-3.231 2.824H1.21c-1.723 0-3.231-1.318-3.231-2.824 0-1.506 1.508-2.824 3.231-2.824zm8.049-5.647l-1.882-9.412H3.613L11.143 0l7.528 11.294h-3.765l-1.882 9.412H9.26z" fill="#fff"/>
    </symbol>
    <symbol id="ruble" viewBox="0 0 30 32">
      <path fill="#ee3434" d="M.268 20.01h3.878v2.738H.268v5.257h3.878v3.997h6.776v-3.997h17.449v-5.297H10.922V20.01h4.397a39.56 39.56 0 0 0 7.165-.532c4.064-.884 7.237-4.645 7.237-9.146 0-.16-.004-.32-.012-.478A9.019 9.019 0 0 0 23.117.537c-2.036-.349-4.309-.539-6.626-.539-.504 0-1.005.009-1.505.027L4.145.023v14.551H.267zM14.259 5.459a35.616 35.616 0 0 1 5.043.235c1.929.305 3.515 2.094 3.515 4.254a4.32 4.32 0 0 1-2.832 4.055 18.356 18.356 0 0 1-4.443.533c-.332 0-.662-.009-.99-.025l-3.632.002V5.459z"/>
    </symbol>
    <symbol id="shopper" viewBox="0 0 883 1024">
      <path fill="#f77272" d="M441.379 35.31c68.255 0 123.586 55.331 123.586 123.586v70.621c0 68.255-55.331 123.586-123.586 123.586s-123.586-55.331-123.586-123.586v-70.621c0-68.255 55.331-123.586 123.586-123.586zm0-35.31c-87.756 0-158.897 71.14-158.897 158.897v70.621c0 87.756 71.14 158.897 158.897 158.897s158.897-71.14 158.897-158.897v-70.621C600.276 71.141 529.136 0 441.379 0z"/><path fill="#f99d9d" d="M865.103 176.552H17.655L0 935.724h882.759l-17.655-759.172z"/><path fill="#fff" d="M865.103 353.103H17.655L0 1024h882.759l-17.655-670.897z"/><path fill="#ff7373" d="M741.517 264.828v88.276h123.586V176.552l-123.586 88.276zM17.655 176.552v176.552h123.586v-88.276L17.655 176.552z"/><path fill="#f13a3a" d="M17.655 353.103h123.586V247.172L17.655 353.103zm723.862-105.931v105.931h123.586L741.517 247.172z"/><path fill="#fff" d="M441.379 176.552c68.255 0 123.586 55.331 123.586 123.586v70.621c0 68.255-55.331 123.586-123.586 123.586s-123.586-55.331-123.586-123.586v-70.621c0-68.255 55.331-123.586 123.586-123.586zm0-35.311c-87.756 0-158.897 71.14-158.897 158.897v70.621c0 87.756 71.14 158.897 158.897 158.897s158.897-71.14 158.897-158.897v-70.621c0-87.756-71.14-158.897-158.897-158.897z"/>
    </symbol>
    <symbol id="sku" viewBox="0 0 34 32">
      <path fill="#ee3434" d="M0 0v32h34.133V0zm7.915 27.733H4.267V4.266h3.648zm7.317-3.605h-3.648V4.267h3.648zm7.317 0h-3.648V4.267h3.648zm7.318 3.605h-3.648V4.266h3.648z"/>
    </symbol>
    <symbol id="squares" viewBox="0 0 384 384">
      <path fill="#fff" d="M160 0H0v160h160zm224 0H224v160h160zM160 224H0v160h160z"/>
    </symbol>
    <symbol id="stripes" viewBox="0 0 14 13">
      <path d="M1 11h12v2H1zM1 0h12v2H1zm.5 5A1.5 1.5 0 0 0 0 6.5 1.5 1.5 0 0 0 1.5 8h11A1.5 1.5 0 0 0 14 6.5 1.5 1.5 0 0 0 12.5 5h-11z" fill="#fff"/>
    </symbol>
    <symbol id="times" viewBox="0 0 17 17">
      <title>clock</title><path d="M8.5 16.013c-4.14 0-7.51-3.37-7.51-7.513S4.36.987 8.5.987s7.51 3.37 7.51 7.513-3.37 7.513-7.51 7.513zm3.82-5.864L9.13 8.306V4.743a.627.627 0 0 0-.63-.626c-.35 0-.63.28-.63.626V8.5c0 .22.12.405.3.517.04.136.13.26.27.338l3.25 1.878c.3.173.68.07.86-.229a.628.628 0 0 0-.23-.855z" fill="#e33"/>
    </symbol></svg>