<svg xmlns="http://www.w3.org/2000/svg" width="16" height="16" viewBox="0 0 16 16"><defs><style>.cls-1{fill:#fff;fill-rule:evenodd}</style></defs><path id="face" class="cls-1" d="M441 42h-12a2 2 0 0 0-2 2v12a2 2 0 0 0 2 2h6.062v-6.157h-2.072v-2.4h2.072v-1.77a2.891 2.891 0 0 1 3.086-3.172A16.975 16.975 0 0 1 440 44.6v2.146h-1.271a1 1 0 0 0-1.189 1.168v1.532h2.376l-.309 2.4h-2.067V58H441a2 2 0 0 0 2-2V44a2 2 0 0 0-2-2zm-13.5 0a.5.5 0 1 1-.5.5.5.5 0 0 1 .5-.5zm-.5 0h3v16h-3V42zm14 0h2v16h-2V42z" transform="translate(-427 -42)"/></svg>