<svg xmlns="http://www.w3.org/2000/svg" width="14" height="19" viewBox="0 0 14 19"><title>pin</title><path d="M12.492 12.184L7 18.998l-5.492-6.813A6.775 6.775 0 0 1 0 7.906C0 4.097 3.14.998 7 .998s7 3.1 7 6.908a6.769 6.769 0 0 1-1.508 4.278zM7 2.14c-3.222 0-5.844 2.587-5.844 5.766 0 1.31.435 2.544 1.258 3.57L7 17.166l4.587-5.691a5.65 5.65 0 0 0 1.257-3.569c0-3.18-2.622-5.766-5.844-5.766zm0 8.534c-1.594 0-2.891-1.28-2.891-2.852 0-1.573 1.297-2.853 2.891-2.853s2.89 1.28 2.89 2.853c0 1.572-1.296 2.852-2.89 2.852zM7 6.11c-.957 0-1.735.768-1.735 1.712 0 .943.778 1.712 1.735 1.712.956 0 1.734-.769 1.734-1.713 0-.943-.778-1.71-1.734-1.71z" fill="#27979d"/></svg>