<svg xmlns="http://www.w3.org/2000/svg" width="25" height="25" viewBox="0 0 25 25"><title>callback_btn</title><path d="M19.972 15.867c-.493-.512-1.087-.786-1.716-.786-.625 0-1.224.269-1.737.78l-1.605 1.596c-.132-.071-.264-.137-.391-.203a6.391 6.391 0 0 1-.502-.268c-1.504-.952-2.87-2.193-4.18-3.8-.635-.799-1.061-1.473-1.371-2.157.417-.38.802-.775 1.178-1.155l.427-.43c1.066-1.064 1.066-2.442 0-3.506L8.688 4.555a24.064 24.064 0 0 1-.472-.48 23.873 23.873 0 0 0-.954-.943c-.493-.486-1.082-.744-1.702-.744-.619 0-1.218.258-1.726.744l-.01.01L2.097 4.88A3.704 3.704 0 0 0 .995 7.235c-.122 1.479.315 2.857.65 3.759.823 2.213 2.052 4.264 3.885 6.463 2.224 2.65 4.9 4.741 7.957 6.215 1.168.552 2.727 1.205 4.469 1.317a7.2 7.2 0 0 0 .32.01c1.173 0 2.158-.42 2.93-1.256.005-.01.015-.015.02-.025.264-.32.569-.609.889-.917.218-.208.442-.426.66-.653.503-.523.767-1.13.767-1.754 0-.627-.269-1.23-.782-1.736zM21.79 21.2c-.005 0-.005.005 0 0-.198.213-.401.405-.62.618-.33.314-.665.643-.98 1.013-.512.547-1.117.806-1.909.806-.076 0-.157 0-.234-.005-1.508-.097-2.909-.684-3.96-1.186-2.875-1.388-5.399-3.358-7.496-5.855-1.731-2.082-2.889-4.007-3.656-6.074-.472-1.26-.645-2.244-.569-3.17a2.32 2.32 0 0 1 .701-1.505l1.732-1.727c.248-.233.512-.36.771-.36.32 0 .579.193.742.355l.015.015c.31.289.604.587.914.906.158.163.32.325.483.492L9.11 6.906c.538.537.538 1.033 0 1.57-.147.147-.289.294-.437.436-.426.435-.833.84-1.274 1.235-.011.01-.021.016-.026.026-.436.435-.355.86-.264 1.15l.015.045c.361.871.869 1.692 1.641 2.67l.005.005c1.401 1.722 2.879 3.065 4.509 4.093.208.131.422.238.625.339.183.091.355.177.502.269.021.01.041.025.061.035.173.086.336.126.503.126.422 0 .686-.263.772-.349l1.737-1.733c.172-.172.447-.38.766-.38.315 0 .574.198.732.37a.929.929 0 0 0 .01.01l2.798 2.792c.523.516.523 1.048.005 1.585zM13.96 6.708a6.445 6.445 0 0 1 3.503 1.814 6.448 6.448 0 0 1 1.818 3.495.681.681 0 0 0 .676.567c.04 0 .076-.005.117-.01a.685.685 0 0 0 .563-.79 7.804 7.804 0 0 0-2.199-4.23 7.831 7.831 0 0 0-4.24-2.193.688.688 0 0 0-.792.557c-.066.37.178.73.554.79zm11.029 4.878a12.84 12.84 0 0 0-3.62-6.964 12.901 12.901 0 0 0-6.983-3.612.683.683 0 1 0-.223 1.347c2.366.4 4.524 1.52 6.241 3.227a11.466 11.466 0 0 1 3.234 6.225.682.682 0 0 0 .676.568c.04 0 .076-.006.117-.01a.672.672 0 0 0 .558-.781z"/></svg>