<svg xmlns="http://www.w3.org/2000/svg" width="23" height="24" viewBox="0 0 23 24"><title>Compare_list</title><path d="M17 24H6c-3.31 0-6-2.687-6-6V7c0-3.314 2.69-6 6-6h11c3.31 0 6 2.686 6 6v11c0 3.313-2.69 6-6 6zm4.57-15.572c0-4.319-1.68-6-6-6H7.43c-4.32 0-6 1.882-6 6v8.143c0 4.32 2.08 6 6 6h8.14c4.52 0 6-1.68 6-6zM17 19h-7c-.55 0-1-.448-1-1 0-.553.45-1 1-1h7c.55 0 1 .447 1 1 0 .552-.45 1-1 1zm0-5h-7c-.55 0-1-.448-1-1 0-.553.45-1 1-1h7c.55 0 1 .447 1 1 0 .552-.45 1-1 1zm0-5h-7c-.55 0-1-.448-1-1s.45-1 1-1h7c.55 0 1 .448 1 1s-.45 1-1 1zM6 19c-.55 0-1-.448-1-1 0-.553.45-1 1-1s1 .447 1 1c0 .552-.45 1-1 1zm0-5c-.55 0-1-.448-1-1 0-.553.45-1 1-1s1 .447 1 1c0 .552-.45 1-1 1zm1-6c0-.552-.45-1-1-1s-1 .448-1 1 .45 1 1 1 1-.448 1-1z"/></svg>