<svg xmlns="http://www.w3.org/2000/svg" width="64" height="64" viewBox="0 0 67 67"><title>Ellipse 8</title><defs><clipPath id="a"><path d="M343 1048c17.673 0 32 14.33 32 32s-14.327 32-32 32c-17.673 0-32-14.33-32-32s14.327-32 32-32z" fill="#fff"/></clipPath></defs><path d="M343 1048c17.673 0 32 14.33 32 32s-14.327 32-32 32c-17.673 0-32-14.33-32-32s14.327-32 32-32z" fill-opacity="0" fill="#fff" stroke-dasharray="0" stroke="#27979d" stroke-miterlimit="50" stroke-width="3" clip-path="url(&amp;quot;#a&amp;quot;)" transform="translate(-310 -1047)"/><path d="M14 30.86s1.369-4.89 6.333-4.86c8.291.04 6.205 6.45 12.667 6.48 6.617.02 6.544-6.44 12.667-6.48 5.474-.03 4.163 1.6 6.333 3.24M14 40.57s1.369-4.88 6.333-4.86c8.291.05 6.205 6.46 12.667 6.48 6.617.03 6.544-6.44 12.667-6.48 5.474-.03 4.163 1.6 6.333 3.24" fill-opacity="0" fill="#fff" stroke-dasharray="0" stroke="#27979d" stroke-miterlimit="50" stroke-width="3"/></svg>