<svg xmlns="http://www.w3.org/2000/svg" width="24" height="17" viewBox="0 0 24 17"><title>book</title><path d="M23.354 17H1.646C1.289 17 1 16.692 1 16.316V3.295c0-.377.29-.682.646-.682h1.25V2.54c0-.287.17-.542.425-.64C4.87 1.301 6.45.997 8.02.997c1.495 0 3.001.276 4.479.82a12.968 12.968 0 0 1 4.479-.82c1.569 0 3.151.304 4.7.901a.682.682 0 0 1 .425.642v.072h1.25c.357 0 .646.306.646.682v13.022c0 .376-.289.682-.646.682zm-11.5-13.975a11.692 11.692 0 0 0-3.833-.662c-1.276 0-2.563.222-3.832.662v10.261a12.804 12.804 0 0 1 3.832-.598c1.277 0 2.563.201 3.833.598zm0 11.69a11.687 11.687 0 0 0-3.833-.662c-1.418 0-2.85.274-4.257.817a.612.612 0 0 1-.592-.081.694.694 0 0 1-.276-.56V3.977h-.604v11.657h9.562zm8.957-11.69a11.69 11.69 0 0 0-3.832-.662c-1.276 0-2.563.222-3.833.662v10.261a12.808 12.808 0 0 1 3.832-.598c1.278 0 2.563.201 3.833.598zm1.897.952h-.605V14.23a.693.693 0 0 1-.275.559.619.619 0 0 1-.592.081c-1.408-.543-2.84-.817-4.258-.817-1.275 0-2.562.223-3.832.663v.919h9.562zM14.834 9.38c0-.376.29-.681.646-.681h3.377c.357 0 .646.305.646.681 0 .377-.289.682-.646.682H15.48c-.356 0-.646-.305-.646-.682zm4.023-3.136H15.48c-.356 0-.646-.306-.646-.683 0-.376.29-.682.646-.682h3.377c.357 0 .646.306.646.682 0 .377-.289.683-.646.683zM5.497 9.38c0-.376.289-.681.646-.681h3.376c.357 0 .646.305.646.681 0 .377-.289.682-.646.682H6.143c-.357 0-.646-.305-.646-.682zm4.668-3.819c0-.376-.289-.682-.646-.682H6.143c-.357 0-.646.306-.646.682 0 .377.289.683.646.683h3.376c.357 0 .646-.306.646-.683z" fill="#999"/></svg>