<svg xmlns="http://www.w3.org/2000/svg" width="21" height="13" viewBox="0 0 21 13"><defs><style>.cls-1{fill-rule:evenodd}</style></defs><path id="eye" class="cls-1" d="M470.8 2411c-3.168-3.98-6.588-6-10.175-6a10.386 10.386 0 0 0-4.281.96 14.832 14.832 0 0 0-3.291 2.07 17.327 17.327 0 0 0-2.907 3 .819.819 0 0 0 .021.97c3.164 3.98 6.588 6 10.175 6a10.382 10.382 0 0 0 4.281-.96 14.86 14.86 0 0 0 3.292-2.07 16.764 16.764 0 0 0 2.906-3.01.8.8 0 0 0-.021-.96zm-3.882 2.77a10.784 10.784 0 0 1-6.576 2.65c-2.958 0-5.843-1.66-8.582-4.93a17.326 17.326 0 0 1 2.286-2.26 10.778 10.778 0 0 1 6.575-2.65c2.958 0 5.843 1.66 8.582 4.93a16.764 16.764 0 0 1-2.283 2.26zm-3.6-3.06a.786.786 0 0 0-.771.79 2.072 2.072 0 1 1-2.072-2.12.785.785 0 0 0 0-1.57 3.691 3.691 0 1 0 3.613 3.69.785.785 0 0 0-.764-.79z" transform="translate(-450 -2405)"/></svg>