<svg xmlns="http://www.w3.org/2000/svg" width="64" height="64" viewBox="0 0 64 64"><defs><style>.cls-1{fill:#27979d;fill-rule:evenodd}</style></defs><path id="guarantee" class="cls-1" d="M162.993 1061.09a18.9 18.9 0 1 0 19.288 18.9 19.117 19.117 0 0 0-19.288-18.9zm0 34.59a15.693 15.693 0 1 1 16.013-15.69 15.871 15.871 0 0 1-16.013 15.69zm29.794-14.67a2.091 2.091 0 0 1-.013-2.49l1.136-1.58a5.262 5.262 0 0 0 .855-4.31 5.349 5.349 0 0 0-2.726-3.48l-1.738-.92a2.108 2.108 0 0 1-1.123-2.22l.334-1.92a5.3 5.3 0 0 0-1.136-4.24 5.527 5.527 0 0 0-4-1.98l-1.979-.08a2.147 2.147 0 0 1-1.991-1.53l-.575-1.84a5.486 5.486 0 0 0-7.392-3.42l-1.818.76a2.233 2.233 0 0 1-2.472-.54l-1.324-1.44a5.521 5.521 0 0 0-8.166.05l-1.284 1.47a2.26 2.26 0 0 1-2.473.58l-1.831-.74a5.692 5.692 0 0 0-2.072-.4 5.436 5.436 0 0 0-5.253 3.92l-.521 1.88a2.184 2.184 0 0 1-1.978 1.56l-1.965.11a5.477 5.477 0 0 0-3.97 2.03 5.287 5.287 0 0 0-1.069 4.26l.361 1.9a2.112 2.112 0 0 1-1.083 2.25l-1.724.94a5.373 5.373 0 0 0-2.674 3.53 5.241 5.241 0 0 0 .923 4.29l1.163 1.56a2.091 2.091 0 0 1 .013 2.49l-1.136 1.58a5.27 5.27 0 0 0-.856 4.31 5.351 5.351 0 0 0 2.727 3.48l1.738.92a2.123 2.123 0 0 1 1.123 2.23l-.335 1.91a5.293 5.293 0 0 0 1.137 4.24 5.456 5.456 0 0 0 4 1.98l1.978.08a2.147 2.147 0 0 1 1.992 1.53l.548 1.86a5.514 5.514 0 0 0 7.392 3.42l1.818-.76a2.233 2.233 0 0 1 2.472.54l1.324 1.44a5.522 5.522 0 0 0 8.167-.05l1.3-1.47a2.243 2.243 0 0 1 2.473-.58l1.831.74a5.7 5.7 0 0 0 2.072.4 5.433 5.433 0 0 0 5.253-3.93l.521-1.87a2.159 2.159 0 0 1 1.978-1.56l1.979-.12a5.453 5.453 0 0 0 3.97-2.03 5.246 5.246 0 0 0 1.069-4.25l-.361-1.9a2.1 2.1 0 0 1 1.083-2.25l1.724-.95a5.354 5.354 0 0 0 2.673-3.52 5.241 5.241 0 0 0-.922-4.29zm-1.109 5.18a2.121 2.121 0 0 1-1.07 1.4l-1.724.94a5.292 5.292 0 0 0-2.713 5.63l.361 1.9a2.047 2.047 0 0 1-.428 1.7 2.121 2.121 0 0 1-1.591.81l-1.965.12a5.42 5.42 0 0 0-4.945 3.92l-.522 1.86a2.2 2.2 0 0 1-2.927 1.41l-1.831-.73a5.7 5.7 0 0 0-2.072-.41 5.512 5.512 0 0 0-4.117 1.84l-1.3 1.45a2.218 2.218 0 0 1-3.262.03l-1.323-1.44a5.515 5.515 0 0 0-4.063-1.79 5.457 5.457 0 0 0-2.152.44l-1.818.76a2.32 2.32 0 0 1-.856.17 2.172 2.172 0 0 1-2.085-1.54l-.548-1.85a5.445 5.445 0 0 0-5-3.86l-1.978-.07a2.159 2.159 0 0 1-1.591-.79 2.054 2.054 0 0 1-.454-1.69l.334-1.91a5.285 5.285 0 0 0-2.807-5.59l-1.738-.92a2.117 2.117 0 0 1-1.1-1.39 2 2 0 0 1 .348-1.71l1.136-1.59a5.234 5.234 0 0 0-.054-6.23l-1.163-1.56a2.033 2.033 0 0 1-.36-1.72 2.116 2.116 0 0 1 1.069-1.4l1.724-.94a5.294 5.294 0 0 0 2.714-5.63l-.348-1.89a2.052 2.052 0 0 1 .428-1.7 2.187 2.187 0 0 1 1.59-.81l1.965-.12a5.425 5.425 0 0 0 4.946-3.91l.521-1.88a2.2 2.2 0 0 1 2.927-1.41l1.832.73a5.7 5.7 0 0 0 2.072.41 5.508 5.508 0 0 0 4.116-1.84l1.3-1.45a2.217 2.217 0 0 1 3.261-.03l1.324 1.45a5.542 5.542 0 0 0 4.063 1.78 5.461 5.461 0 0 0 2.152-.44l1.818-.76a2.315 2.315 0 0 1 .855-.17 2.172 2.172 0 0 1 2.086 1.54l.548 1.86a5.462 5.462 0 0 0 5 3.85l1.978.07a2.209 2.209 0 0 1 1.6.79 2.054 2.054 0 0 1 .454 1.69l-.334 1.91a5.287 5.287 0 0 0 2.807 5.59l1.738.92a2.117 2.117 0 0 1 1.1 1.39 2.045 2.045 0 0 1-.334 1.71l-1.136 1.59a5.236 5.236 0 0 0 .053 6.23l1.163 1.56a2.275 2.275 0 0 1 .326 1.72zm-23.94-11.4l-7.164 6.98-2.326-2.29a1.65 1.65 0 0 0-2.312 0 1.591 1.591 0 0 0-.014 2.27l3.489 3.43a1.659 1.659 0 0 0 1.163.47 1.649 1.649 0 0 0 1.149-.47l8.328-8.11a1.58 1.58 0 0 0 .013-2.26 1.687 1.687 0 0 0-2.326-.02z" transform="translate(-131 -1048)"/></svg>