<svg xmlns="http://www.w3.org/2000/svg" width="13" height="19" viewBox="0 0 13 19"><title>ok</title><path d="M5.5 13.189c-1.45-.14-2.75-.47-3.86-1.28-.14-.101-.28-.198-.41-.311-.49-.435-.53-.934-.15-1.448.33-.439.89-.557 1.46-.305.11.049.22.11.32.175 2.08 1.327 4.93 1.364 7.01.061.21-.147.43-.268.68-.328.5-.12.97.05 1.23.455.31.462.3.913-.07 1.271-.58.551-1.27.948-2.04 1.226-.73.262-1.53.395-2.32.482l.25.25c1.08 1.001 2.15 1.998 3.22 3.002.36.343.44.767.24 1.165-.22.435-.71.721-1.19.691-.31-.02-.54-.161-.75-.358-.81-.758-1.64-1.501-2.43-2.272-.23-.224-.34-.181-.54.014-.82.778-1.65 1.545-2.48 2.308-.37.343-.82.404-1.25.208-.46-.207-.75-.644-.73-1.083.02-.297.17-.524.39-.728l3.18-2.959c.07-.065.13-.135.24-.236zm.88-3.43c-2.58-.008-4.69-1.992-4.67-4.39C1.72 2.945 3.83.992 6.43.999c2.61.007 4.7 1.988 4.68 4.437-.01 2.392-2.13 4.331-4.73 4.323zm2.34-4.384c-.01-1.191-1.03-2.138-2.31-2.139-1.28-.001-2.31.963-2.3 2.165.01 1.186 1.03 2.127 2.32 2.122 1.27-.004 2.29-.957 2.29-2.148z"/></svg>