<svg xmlns="http://www.w3.org/2000/svg" width="37.75" height="33.97" viewBox="0 0 37.75 33.97"><defs><style>.cls-1{fill:#eb1d82;fill-rule:evenodd}</style></defs><path id="pdf_icon" class="cls-1" d="M133.574 2419.85c-1.344-2.45-7.227-4.01-12.421-4.3-.469-.51-.946-1.04-1.434-1.6-4.464-5.15-6.272-12.64-6.947-16.6-.08-.84-.169-1.54-.243-2.06a1.192 1.192 0 0 0-1.076-1.28 1.01 1.01 0 0 0-.756.34 1.388 1.388 0 0 0-.213 1.21c.063.52.158 1.22.294 2.02.38 4.02.56 11.69-2.511 17.78-.32.63-.639 1.24-.956 1.82-5.746 1.69-10.383 4.7-11.062 7.19a2.483 2.483 0 0 0 .6 2.44 3.479 3.479 0 0 0 2.594 1.17c2.719 0 5.817-3.05 9.21-9.07a29.275 29.275 0 0 1 4.46-.83c.565-.06 1.479-.18 2.04-.27a27.777 27.777 0 0 1 5.1-.28c4.166 4.37 7.571 6.59 10.123 6.59a3.555 3.555 0 0 0 3.193-1.9 2.372 2.372 0 0 0 .005-2.37zm-1.754.98a.346.346 0 0 1 0 .4 1.572 1.572 0 0 1-1.486.87c-1.595 0-4.048-1.53-6.984-4.32 4.55.58 7.872 1.96 8.47 3.05zm-26.047-1.01c-2.429 3.87-4.753 6.14-6.328 6.14a1.507 1.507 0 0 1-1.145-.55.451.451 0 0 1-.118-.5c.35-1.29 3.291-3.49 7.59-5.09zm4.154-3.29c.042-.09.084-.17.126-.25a29.061 29.061 0 0 0 2.784-10.67 29.926 29.926 0 0 0 5.372 9.67c.064.07.131.15.195.23a27.693 27.693 0 0 0-3.555.3c-.534.09-1.4.2-1.937.26a26.9 26.9 0 0 0-2.985.46z" transform="translate(-96.156 -2394)"/></svg>