<svg xmlns="http://www.w3.org/2000/svg" width="25" height="27" viewBox="0 0 25 27"><defs><style>.cls-1{fill:#27979d;fill-rule:evenodd}</style></defs><path id="share" class="cls-1" d="M933.253 842.345a4.716 4.716 0 0 0-3.755 1.884l-7.285-4.144a4.931 4.931 0 0 0 .264-1.592 4.815 4.815 0 0 0-.27-1.6l7.28-4.138a4.7 4.7 0 0 0 3.761 1.895 4.817 4.817 0 1 0-4.472-3.229l-7.274 4.137a4.689 4.689 0 0 0-3.761-1.895 4.828 4.828 0 0 0 .006 9.654 4.713 4.713 0 0 0 3.766-1.9l7.28 4.143a4.889 4.889 0 0 0-.275 1.609 4.742 4.742 0 1 0 4.735-4.824zm0-15.827a3.314 3.314 0 1 1-3.253 3.314 3.288 3.288 0 0 1 3.253-3.314zm-15.506 15.289a3.314 3.314 0 1 1 3.253-3.314 3.288 3.288 0 0 1-3.253 3.314zm15.506 8.673a3.314 3.314 0 1 1 3.255-3.314 3.287 3.287 0 0 1-3.255 3.314z" transform="translate(-913 -825)"/></svg>