<svg xmlns="http://www.w3.org/2000/svg" width="16" height="14" viewBox="0 0 16 14"><title>tw</title><path d="M15.56 1.239a6.66 6.66 0 0 1-2.09.797 3.285 3.285 0 0 0-5.68 2.245c0 .257.03.508.09.747a9.326 9.326 0 0 1-6.77-3.429 3.282 3.282 0 0 0-.44 1.65c0 1.139.58 2.143 1.46 2.732a3.34 3.34 0 0 1-1.49-.412v.04c0 1.59 1.14 2.916 2.64 3.22-.28.073-.57.115-.87.115-.21 0-.42-.022-.62-.06a3.289 3.289 0 0 0 3.07 2.28 6.586 6.586 0 0 1-4.08 1.405c-.26 0-.52-.016-.78-.045a9.3 9.3 0 0 0 5.03 1.475c6.04 0 9.34-5.003 9.34-9.34l-.01-.426A6.666 6.666 0 0 0 16 2.536a6.6 6.6 0 0 1-1.88.518 3.351 3.351 0 0 0 1.44-1.815z"/></svg>