<svg xmlns="http://www.w3.org/2000/svg" width="17" height="10" viewBox="0 0 17 10"><title>vk</title><path d="M16.286 7.556c-.35-.407-.747-.772-1.132-1.125-.136-.125-.278-.255-.414-.384-.391-.371-.405-.51-.096-.931.215-.29.442-.58.661-.861.2-.255.406-.52.603-.784l.041-.054c.377-.507.767-1.029.975-1.661.054-.167.111-.412-.019-.616-.129-.206-.38-.268-.558-.297a1.51 1.51 0 0 0-.256-.016L13.619.825h-.02c-.374 0-.626.17-.77.522-.138.335-.289.692-.462 1.032-.343.676-.78 1.456-1.412 2.106l-.026.027c-.075.078-.159.166-.221.166a.1.1 0 0 1-.032-.005c-.13-.049-.218-.357-.214-.499v-.007l-.002-2.768c0-.009 0-.02-.002-.029-.063-.45-.202-.73-.728-.83a.202.202 0 0 0-.043-.004h-2.57c-.418 0-.649.164-.866.412-.059.065-.18.203-.12.37.061.169.26.205.325.217.321.059.503.25.554.582.09.579.101 1.196.035 1.943a1.61 1.61 0 0 1-.115.506c-.014.031-.063.135-.114.135-.016 0-.062-.004-.146-.061-.2-.133-.346-.321-.516-.555A12.929 12.929 0 0 1 4.67 1.416c-.156-.37-.447-.576-.821-.583-.41-.006-.782-.009-1.136-.009-.388 0-.747.003-1.098.01-.3.006-.508.093-.617.26-.11.167-.103.387.021.653.989 2.131 1.886 3.68 2.907 5.024.716.941 1.435 1.591 2.26 2.048.87.483 1.845.717 2.98.717.129 0 .262-.003.396-.009.66-.031.905-.262.936-.885.015-.319.05-.652.212-.937.102-.179.197-.179.228-.179.06 0 .135.026.215.077.143.091.266.213.367.32.095.1.189.202.284.304.202.221.412.448.631.664.48.473 1.009.681 1.616.637h2.266l.015-.001a.664.664 0 0 0 .536-.333c.143-.244.14-.557-.008-.835a4.43 4.43 0 0 0-.574-.803z"/></svg>