<svg xmlns="http://www.w3.org/2000/svg" width="24" height="24" viewBox="0 0 24 24"><title>wishlist</title><path d="M17.21.997c-2.04 0-3.95.929-5.22 2.484A6.779 6.779 0 0 0 6.76.997C3.03.997 0 4.047 0 7.795c0 2.935 1.74 6.33 5.18 10.09 2.64 2.895 5.51 5.136 6.33 5.754l.48.358.47-.358c.82-.618 3.69-2.859 6.34-5.753 3.43-3.76 5.17-7.156 5.17-10.091 0-3.749-3.03-6.798-6.76-6.798zm.42 15.815c-2.17 2.38-4.51 4.304-5.64 5.19-1.14-.886-3.48-2.81-5.65-5.19-3.11-3.41-4.76-6.528-4.76-9.017 0-2.873 2.33-5.21 5.18-5.21 1.88 0 3.62 1.03 4.53 2.69l.7 1.253.69-1.254a5.174 5.174 0 0 1 4.53-2.688c2.86 0 5.18 2.336 5.18 5.209 0 2.49-1.64 5.607-4.76 9.017z"/></svg>