<svg xmlns="http://www.w3.org/2000/svg" width="75" height="59" viewBox="0 0 20 16"><path fill="#fff" d="M20.339 15.996h-2.188c0-1.329-.317-2.947-2.963-2.947v-2.188s.412-.016.813-.016l.061.001a1.96 1.96 0 1 0-1.93-1.616l-.029-.012v2.711a4.067 4.067 0 0 1-8.134 0V8.947a1.898 1.898 0 0 0-3.796 0v1.898h2.711v2.169H2.173v2.982H.004V8.947a4.066 4.066 0 0 1 7.047-2.76 4.06 4.06 0 0 1 5.965 0 4.078 4.078 0 0 1 3.035-1.354 4.067 4.067 0 0 1 2.616 7.181 5.42 5.42 0 0 1 1.672 3.916V16zm-8.405-7.049a1.898 1.898 0 0 0-3.796 0v2.982a1.898 1.898 0 0 0 3.796 0zm4.067-5.693a1.627 1.627 0 1 1 0-3.254 1.627 1.627 0 0 1 0 3.254zm-5.965 0a1.627 1.627 0 1 1 0-3.254 1.627 1.627 0 0 1 0 3.254zm-5.965 0a1.627 1.627 0 1 1 0-3.254 1.627 1.627 0 0 1 0 3.254z"/></svg>