<svg xmlns="http://www.w3.org/2000/svg" width="1024" height="1024" viewBox="0 0 1024 1024"><path fill="#fff" d="M512 256c-141.385 0-256 114.615-256 256s114.615 256 256 256 256-114.615 256-256-114.615-256-256-256zm0 358.4c-56.554 0-102.4-45.846-102.4-102.4S455.446 409.6 512 409.6c56.554 0 102.4 45.846 102.4 102.4S568.554 614.4 512 614.4zM512 0c28.277 0 51.2 22.923 51.2 51.2v51.2c0 28.277-22.923 51.2-51.2 51.2s-51.2-22.923-51.2-51.2V51.2C460.8 22.923 483.723 0 512 0zm0 870.4c28.277 0 51.2 22.923 51.2 51.2v51.2c0 28.277-22.923 51.2-51.2 51.2s-51.2-22.923-51.2-51.2v-51.2c0-28.277 22.923-51.2 51.2-51.2zM0 512c0-28.277 22.923-51.2 51.2-51.2h51.2c28.277 0 51.2 22.923 51.2 51.2s-22.923 51.2-51.2 51.2H51.2C22.923 563.2 0 540.277 0 512zm870.4 0c0-28.277 22.923-51.2 51.2-51.2h51.2c28.277 0 51.2 22.923 51.2 51.2s-22.923 51.2-51.2 51.2h-51.2c-28.277 0-51.2-22.923-51.2-51.2z"/></svg>