<svg xmlns="http://www.w3.org/2000/svg" preserveAspectRatio="xMidYMid" width="15" height="15" viewBox="0 0 15 15"><path d="M12.258 3.808l1.074-1.074a7.523 7.523 0 0 1 1.666 4.012h-1.523a5.998 5.998 0 0 0-1.217-2.938zM8.253 1.524V.002a7.52 7.52 0 0 1 4.013 1.665l-1.074 1.078a6.012 6.012 0 0 0-2.939-1.221zM11 7.5a3.5 3.5 0 1 1-7 0 3.5 3.5 0 0 1 7 0zM2.734 1.667A7.53 7.53 0 0 1 6.746.002v1.522a6.016 6.016 0 0 0-2.938 1.217L2.734 1.667zm-1.21 5.079H.002a7.503 7.503 0 0 1 1.669-4.012l1.074 1.074a6.022 6.022 0 0 0-1.221 2.938zm1.217 4.446l-1.074 1.074A7.529 7.529 0 0 1 .002 8.253h1.522a6.07 6.07 0 0 0 1.217 2.939zm4.005 2.283v1.522a7.514 7.514 0 0 1-4.012-1.665l1.074-1.077a6.01 6.01 0 0 0 2.938 1.22zm5.52-.143a7.513 7.513 0 0 1-4.013 1.665v-1.522a6.035 6.035 0 0 0 2.939-1.217l1.074 1.074zm1.209-5.079h1.523a7.477 7.477 0 0 1-1.669 4.009l-1.074-1.074a5.96 5.96 0 0 0 1.22-2.935z"/></svg>