<svg xmlns="http://www.w3.org/2000/svg" width="13" height="16" viewBox="0 0 13 16"><title>man</title><path d="M6.66 7.96c-1.71 0-3.11-1.63-3.11-3.63S4.95.7 6.66.7c1.72 0 3.11 1.63 3.11 3.63S8.38 7.96 6.66 7.96zM6.5 15.3C4 15.3.67 15.01.24 12.62H.2l.02-.52c.14-1.74.99-3.04 2.73-4.18.16-.1.33-.15.51-.15.76 0 1.28.87 1.95 1.98.33.56.94 1.59 1.23 1.67.25-.08.83-1.11 1.15-1.66.63-1.12 1.13-1.99 1.89-1.99.18 0 .36.01.51.11 1.66 1.08 2.47 2.34 2.59 4.14h.02v.6h-.05C12.33 15.01 9 15.3 6.5 15.3z" fill="#e33"/></svg>