<svg xmlns="http://www.w3.org/2000/svg" width="52" height="49" viewBox="0 0 52 49"><path d="M52 38.955C52 44.5 40.36 49 26.002 49c-14.36 0-26-4.5-26-10.045.001-.358.048-.703.136-1.033l-.136.028v-4.018h.52c2.41 4.58 12.9 8.036 25.48 8.036s23.07-3.455 25.48-8.036h.52v4.018h-.13c.082.302.129.647.13 1.004z" fill="#f48284"/><path d="M52 27.905C52 33.45 40.36 37.95 26.002 37.95c-14.36 0-26-4.5-26-10.045.001-.357.048-.703.136-1.032l-.136.028v-4.018h.52c2.41 4.58 12.9 8.036 25.48 8.036s23.07-3.456 25.48-8.036h.52V26.9h-.13c.082.3.129.647.13 1.004z" fill="#f48284"/><path d="M52 17.127c0 5.545-11.64 10.045-25.999 10.045-14.36 0-26-4.5-26-10.045.001-.358.048-.703.136-1.033l-.136.028v-4.018h.52c2.41 4.58 12.9 8.036 25.48 8.036s23.07-3.455 25.48-8.036h.52v4.018h-.13c.082.302.129.647.13 1.004z" fill="#f48284"/><path d="M52 33.932h-.52c-1.92 3.657-9 6.59-18.15 7.625v7.031C44.12 47.373 52 43.475 52 38.955a4.04 4.04 0 0 0-.135-1.033l.136.028zm0-11.049h-.52c-1.92 3.656-9 6.59-18.15 7.624v7.032C44.12 36.323 52 32.426 52 27.905a4.04 4.04 0 0 0-.135-1.032L52 26.9zm0-10.779h-.52c-1.92 3.657-9 6.59-18.15 7.625v7.031C44.12 25.535 52 21.687 52 17.127a4.04 4.04 0 0 0-.135-1.033l.136.028z" fill="#f7a7a8"/><path d="M52 10.045c0 5.548-11.64 10.045-25.999 10.045-14.36 0-26-4.497-26-10.045S11.641 0 26.001 0s26 4.497 26 10.045z" fill="#fff"/></svg>