<svg xmlns="http://www.w3.org/2000/svg" width="17" height="17" viewBox="0 0 32 32"><path fill="#fff" d="M28.8 13.6c-.6-.2-1-.6-1.2-1.2l-.8-2c-.2-.6-.2-1.2.2-1.6L28 7c.4-.4.4-1 0-1.6L26.6 4c-.4-.4-1-.4-1.6 0l-1.8 1.4c-.4.4-1.2.4-1.6.2l-2-.8c-.6-.4-1-.8-1.2-1.4l-.2-2.2C18 .6 17.6 0 17 0h-2c-.6 0-1 .6-1.2 1.2l-.2 2c-.2.6-.6 1.2-1.2 1.4l-2 .8c-.6.2-1.2.2-1.6-.2L7 4c-.4-.4-1-.4-1.6 0L4 5.4C3.6 6 3.6 6.6 4 7l1.4 1.8c.4.4.4 1.2.2 1.6l-.8 2c-.4.6-.8 1-1.4 1.2l-2.2.2C.6 14 0 14.4 0 15v2c0 .6.6 1 1.2 1.2l2.2.2c.6.2 1 .6 1.2 1.2l.8 2c.2.6.2 1.2-.2 1.6L4 25c-.4.4-.4.8-.2 1.4.2.2.8 1 .8 1l.6.4c.4.2 1.4.6 1.8.2l1.8-1.4c.4-.4 1.2-.4 1.6-.2l2 .8c.6.2 1 .8 1.2 1.2l.4 2.4c0 .6.4 1 1 1.2h2c.6 0 1-.6 1.2-1.2l.4-2.2c.2-.6.6-1 1.2-1.2l2-.8c.6-.2 1.2-.2 1.6.2l1.8 1.4c.4.4 1 .4 1.6 0l1.4-1.4c.4-.4.4-1 0-1.6l-1.4-1.8c-.4-.4-.4-1.2-.2-1.6l.8-2c.2-.6.8-1 1.2-1.2l2.2-.2c.6-.4 1.2-.8 1.2-1.4v-2c0-.6-.6-1-1.2-1.2l-2-.2zM16 20c-2.2 0-4-1.8-4-4s1.8-4 4-4 4 1.8 4 4-1.8 4-4 4z"/></svg>