<svg xmlns="http://www.w3.org/2000/svg" width="16" height="16" viewBox="0 0 32 32"><path fill="#fff" d="M16 32c-8.914 0-16-1.829-16-4.114v-4.114c0-.457.229-.686.686-.914 1.6 1.829 7.771 3.2 15.314 3.2s13.714-1.371 15.543-2.971c.229.229.457.686.686.914v4.114C32 30.172 24.915 32.001 16 32.001zm0-10.057c-8.914 0-16-1.829-16-4.114v-3.886c0-.457.229-.686.686-.914C2.286 14.629 8.457 16 16 16s13.714-1.371 15.543-2.971c.229.229.457.686.457.914v3.886c0 2.286-7.086 4.114-16 4.114zm0-9.829C7.086 12.114 0 10.285 0 8V4.114C0 1.828 7.086 0 16 0s16 1.829 16 4.114v4.114c0 2.057-7.086 3.886-16 3.886z"/></svg>