<svg xmlns="http://www.w3.org/2000/svg" width="17" height="17" viewBox="0 0 32 32"><path fill="#fff" d="M2.133 4.267h8.533c1.28 0 2.133.853 2.133 2.133v4.267c0 1.28-.853 2.133-2.133 2.133H2.133C.853 12.8 0 11.947 0 10.667V6.4c0-1.28.853-2.133 2.133-2.133zm17.067 0h10.667C31.147 4.267 32 5.12 32 6.4s-.853 2.133-2.133 2.133H19.2c-1.28 0-2.133-.853-2.133-2.133s.853-2.133 2.133-2.133zm-1.067 6.4h12.8c.64 0 1.067.427 1.067 1.067s-.427 1.067-1.067 1.067h-12.8c-.64 0-1.067-.427-1.067-1.067s.427-1.067 1.067-1.067zm-16 8.533h8.533c1.28 0 2.133.853 2.133 2.133V25.6c0 1.28-.853 2.133-2.133 2.133H2.133C.853 27.733 0 26.88 0 25.6v-4.267c0-1.28.853-2.133 2.133-2.133zm17.067 0h10.667c1.28 0 2.133.853 2.133 2.133s-.853 2.133-2.133 2.133H19.2c-1.28 0-2.133-.853-2.133-2.133S17.92 19.2 19.2 19.2zm-1.067 6.4h12.8c.64 0 1.067.427 1.067 1.067s-.427 1.067-1.067 1.067h-12.8c-.64 0-1.067-.427-1.067-1.067s.427-1.067 1.067-1.067z"/></svg>