<svg xmlns="http://www.w3.org/2000/svg" width="15" height="16" viewBox="0 0 30 32"><path fill="#ee3434" d="M.268 20.01h3.878v2.738H.268v5.257h3.878v3.997h6.776v-3.997h17.449v-5.297H10.922V20.01h4.397a39.56 39.56 0 0 0 7.165-.532c4.064-.884 7.237-4.645 7.237-9.146 0-.16-.004-.32-.012-.478A9.019 9.019 0 0 0 23.117.537c-2.036-.349-4.309-.539-6.626-.539-.504 0-1.005.009-1.505.027L4.145.023v14.551H.267zM14.259 5.459a35.616 35.616 0 0 1 5.043.235c1.929.305 3.515 2.094 3.515 4.254a4.32 4.32 0 0 1-2.832 4.055 18.356 18.356 0 0 1-4.443.533c-.332 0-.662-.009-.99-.025l-3.632.002V5.459z"/></svg>