<svg xmlns="http://www.w3.org/2000/svg" width="883" height="1024" viewBox="0 0 883 1024"><path fill="#f77272" d="M441.379 35.31c68.255 0 123.586 55.331 123.586 123.586v70.621c0 68.255-55.331 123.586-123.586 123.586s-123.586-55.331-123.586-123.586v-70.621c0-68.255 55.331-123.586 123.586-123.586zm0-35.31c-87.756 0-158.897 71.14-158.897 158.897v70.621c0 87.756 71.14 158.897 158.897 158.897s158.897-71.14 158.897-158.897v-70.621C600.276 71.141 529.136 0 441.379 0z"/><path fill="#f99d9d" d="M865.103 176.552H17.655L0 935.724h882.759l-17.655-759.172z"/><path fill="#fff" d="M865.103 353.103H17.655L0 1024h882.759l-17.655-670.897z"/><path fill="#ff7373" d="M741.517 264.828v88.276h123.586V176.552l-123.586 88.276zM17.655 176.552v176.552h123.586v-88.276L17.655 176.552z"/><path fill="#f13a3a" d="M17.655 353.103h123.586V247.172L17.655 353.103zm723.862-105.931v105.931h123.586L741.517 247.172z"/><path fill="#fff" d="M441.379 176.552c68.255 0 123.586 55.331 123.586 123.586v70.621c0 68.255-55.331 123.586-123.586 123.586s-123.586-55.331-123.586-123.586v-70.621c0-68.255 55.331-123.586 123.586-123.586zm0-35.311c-87.756 0-158.897 71.14-158.897 158.897v70.621c0 87.756 71.14 158.897 158.897 158.897s158.897-71.14 158.897-158.897v-70.621c0-87.756-71.14-158.897-158.897-158.897z"/></svg>